<?xml version="1.0" encoding="utf-8"?>
<!-- Generator: Adobe Illustrator 24.2.3, SVG Export Plug-In . SVG Version: 6.00 Build 0)  -->
<svg version="1.1" id="Layer_1" xmlns="http://www.w3.org/2000/svg" xmlns:xlink="http://www.w3.org/1999/xlink" x="0px" y="0px"
	 viewBox="0 0 1366 1545" style="enable-background:new 0 0 1366 1545;" xml:space="preserve">
<style type="text/css">
	.st0{fill:url(#SVGID_1_);}
	.st1{fill:#FFFFFF;}
</style>
<g>
	<linearGradient id="SVGID_1_" gradientUnits="userSpaceOnUse" x1="683" y1="1544.5" x2="683" y2="0.5">
		<stop  offset="0" style="stop-color:#CCE0F4"/>
		<stop  offset="0.0322" style="stop-color:#C3DCF2"/>
		<stop  offset="0.0857" style="stop-color:#A9D2EE"/>
		<stop  offset="0.154" style="stop-color:#80C2E7"/>
		<stop  offset="0.2336" style="stop-color:#47ACDE"/>
		<stop  offset="0.2851" style="stop-color:#1E9CD7"/>
		<stop  offset="0.6775" style="stop-color:#000355"/>
		<stop  offset="0.9944" style="stop-color:#01002A"/>
	</linearGradient>
	<rect x="0.5" y="0.5" class="st0" width="1365" height="1544"/>
	<path class="st1" d="M1365,1v1543H1V1H1365 M1366,0H0v1545h1366V0L1366,0z"/>
</g>
<g>
	<g>
		<path class="st1" d="M130.26,893.52c6.09,0,12.18,0,18.27,0c1.93,0,1.93-3,0-3c-6.09,0-12.18,0-18.27,0
			C128.33,890.52,128.33,893.52,130.26,893.52L130.26,893.52z"/>
	</g>
</g>
<g>
	<g>
		<path class="st1" d="M135.41,878.73c0,8.31,0,16.61,0,24.92c0,1.93,3,1.93,3,0c0-8.31,0-16.61,0-24.92
			C138.41,876.8,135.41,876.79,135.41,878.73L135.41,878.73z"/>
	</g>
</g>
<g>
	<g>
		<path class="st1" d="M109.07,1170.57c1.93,0,1.93-3,0-3C107.14,1167.57,107.14,1170.57,109.07,1170.57L109.07,1170.57z"/>
	</g>
</g>
<g>
	<g>
		<path class="st1" d="M388.6,1117.73c1.93,0,1.93-3,0-3C386.67,1114.73,386.66,1117.73,388.6,1117.73L388.6,1117.73z"/>
	</g>
</g>
<g>
	<g>
		<path class="st1" d="M594.83,983.08c1.93,0,1.93-3,0-3C592.9,980.08,592.9,983.08,594.83,983.08L594.83,983.08z"/>
	</g>
</g>
<g>
	<g>
		<path class="st1" d="M974.92,1122.85c1.93,0,1.93-3,0-3C972.99,1119.85,972.99,1122.85,974.92,1122.85L974.92,1122.85z"/>
	</g>
</g>
<g>
	<g>
		<path class="st1" d="M882.88,931.95c1.93,0,1.93-3,0-3C880.95,928.95,880.95,931.95,882.88,931.95L882.88,931.95z"/>
	</g>
</g>
<g>
	<g>
		<path class="st1" d="M1283.43,1039.33c1.93,0,1.93-3,0-3C1281.5,1036.33,1281.49,1039.33,1283.43,1039.33L1283.43,1039.33z"/>
	</g>
</g>
<g>
	<g>
		<path class="st1" d="M1225.48,892.75c1.93,0,1.93-3,0-3C1223.55,889.75,1223.54,892.75,1225.48,892.75L1225.48,892.75z"/>
	</g>
</g>
<g>
	<g>
		<path class="st1" d="M310.4,652.63c-0.07,10.66-0.13,21.32-0.2,31.98c-0.01,1.39,2.18,2.18,2.8,0.76
			c3.28-7.53,6.57-15.07,9.85-22.6c0.54-1.25-0.34-2.42-1.69-2.2c-8.25,1.33-15.94,5.35-21.79,11.32c-0.86,0.87-0.28,2.66,1.06,2.56
			c9.32-0.68,18.62,0.84,27.25,4.42c0.27-0.96,0.53-1.93,0.8-2.89c-7.19-2.31-13.3-7.29-17.07-13.83c-0.96-1.67-3.56-0.16-2.59,1.51
			c4.16,7.22,10.94,12.66,18.86,15.21c1.89,0.61,2.53-2.18,0.8-2.89c-8.85-3.67-18.5-5.22-28.05-4.53c0.35,0.85,0.71,1.71,1.06,2.56
			c5.52-5.64,12.68-9.3,20.47-10.55c-0.56-0.73-1.13-1.47-1.69-2.2c-3.28,7.53-6.57,15.07-9.85,22.6c0.93,0.25,1.86,0.5,2.8,0.76
			c0.07-10.66,0.13-21.32,0.2-31.98C313.41,650.69,310.41,650.69,310.4,652.63L310.4,652.63z"/>
	</g>
</g>
<g>
	<g>
		<path class="st1" d="M821.54,550.36c0.22,11.23,0.43,22.46,0.65,33.69c0.04,1.96,2.82,1.89,3,0c0.76-8.18,3.76-16,8.54-22.67
			c0.94-1.32-0.84-2.66-2.05-2.05c-7.02,3.53-13.44,8.17-19.01,13.71c-0.85,0.84-0.28,2.71,1.06,2.56
			c9.16-1.04,18.49,0.4,26.86,4.31c1.73,0.81,3.26-1.75,1.51-2.59c-8.33-4-15.69-9.89-21.3-17.25c-1.16-1.52-3.76-0.02-2.59,1.51
			c5.93,7.77,13.56,14.09,22.38,18.33c0.5-0.86,1.01-1.73,1.51-2.59c-8.84-4.13-18.67-5.82-28.37-4.72
			c0.35,0.85,0.71,1.71,1.06,2.56c5.4-5.37,11.59-9.82,18.4-13.24c-0.68-0.68-1.37-1.37-2.05-2.05c-5.1,7.11-8.14,15.48-8.95,24.18
			c1,0,2,0,3,0c-0.22-11.23-0.43-22.46-0.65-33.69C824.5,548.44,821.5,548.43,821.54,550.36L821.54,550.36z"/>
	</g>
</g>
<g>
	<g>
		<path class="st1" d="M1147.07,538.22c7.39,0,14.77,0,22.16,0c1.93,0,1.93-3,0-3c-7.39,0-14.77,0-22.16,0
			C1145.14,535.22,1145.14,538.22,1147.07,538.22L1147.07,538.22z"/>
	</g>
</g>
<g>
	<g>
		<path class="st1" d="M1155.8,517.97c0,11.36,0,22.73,0,34.09c0,1.93,3,1.93,3,0c0-11.36,0-22.73,0-34.09
			C1158.8,516.04,1155.8,516.04,1155.8,517.97L1155.8,517.97z"/>
	</g>
</g>
<g>
	<g>
		<path class="st1" d="M1181.16,495.61c3.32,0.07,6.64,0.15,9.96,0.22c-0.5-0.5-1-1-1.5-1.5c0.09,3.34,0.18,6.67,0.26,10.01
			c0.02,0.81,0.67,1.5,1.5,1.5c0.8,0,1.52-0.69,1.5-1.5c-0.09-3.34-0.18-6.67-0.26-10.01c-0.02-0.82-0.67-1.48-1.5-1.5
			c-3.32-0.07-6.64-0.15-9.96-0.22c-0.81-0.02-1.5,0.7-1.5,1.5C1179.66,494.94,1180.35,495.59,1181.16,495.61L1181.16,495.61z"/>
	</g>
</g>
<g>
	<g>
		<path class="st1" d="M57.94,490.5c1.93,0,1.93-3,0-3C56.01,487.5,56,490.5,57.94,490.5L57.94,490.5z"/>
	</g>
</g>
<g>
	<g>
		<path class="st1" d="M1348.2,403.57c1.93,0,1.93-3,0-3C1346.27,400.57,1346.26,403.57,1348.2,403.57L1348.2,403.57z"/>
	</g>
</g>
<g>
	<g>
		<path class="st1" d="M371.55,406.98c1.93,0,1.93-3,0-3C369.62,403.98,369.62,406.98,371.55,406.98L371.55,406.98z"/>
	</g>
</g>
<g>
	<g>
		<path class="st1" d="M591.43,529.7c1.93,0,1.93-3,0-3C589.5,526.7,589.49,529.7,591.43,529.7L591.43,529.7z"/>
	</g>
</g>
<g>
	<g>
		<path class="st1" d="M1002.2,337.1c1.93,0,1.93-3,0-3C1000.27,334.1,1000.26,337.1,1002.2,337.1L1002.2,337.1z"/>
	</g>
</g>
</svg>
