<?xml version="1.0" encoding="utf-8"?>
<!-- Generator: Adobe Illustrator 24.2.3, SVG Export Plug-In . SVG Version: 6.00 Build 0)  -->
<svg version="1.1" id="Layer_2" xmlns="http://www.w3.org/2000/svg" xmlns:xlink="http://www.w3.org/1999/xlink" x="0px" y="0px"
	 viewBox="0 0 241 112.1" style="enable-background:new 0 0 241 112.1;" xml:space="preserve">
<style type="text/css">
	.st0{fill:none;stroke:#D5DB5D;stroke-width:10;stroke-linecap:round;stroke-linejoin:round;stroke-miterlimit:10;}
</style>
<path class="st0" d="M39,35.5c-27.63,57.92-33.95,71.03-34,71c-0.05-0.03,5.31-13.77,16-29c13.49-19.21,35.45-40.74,44-36
	c1.09,0.6,1.66,1.47,2,2c8.18,12.74-27.97,39.66-20,56c1.56,3.2,4.44,5.23,7,6c7.94,2.39,19-5.43,28-20"/>
<path class="st0" d="M116.5,40c-7.01,3.53-17.92,10.59-24.5,23.5c-6.88,13.49-9.59,34.48-1,40c2.99,1.92,6.45,1.39,9,1
	c15.33-2.35,23.29-21,25-25c5.85-13.71,4.3-26.55,3-33c-0.39-0.51-3.62-4.61-7-4c-3.95,0.71-5.59,7.41-5,12
	c1.06,8.17,9.54,11.81,10,12c6.07,2.49,11.62,0.53,13,0"/>
<path class="st0" d="M150.5,30c13.67,0.33,27.33,0.67,41,1"/>
<path class="st0" d="M182.5,5c-14.74,27.73-45.59,88.64-34.5,98.5c2.62,2.33,6,3,6,3c11.21,2.21,22.06-12.33,24-15"/>
<path class="st0" d="M184.5,68c1.47,1.78,8.97,10.52,19,10c15.7-0.82,27.04-23.79,21.5-33.5c-2.16-3.78-6.49-4.88-7-5
	c-12.78-3.05-31.43,15.6-36,36c-0.96,4.27-4.62,20.6,4,28c9.72,8.34,30.07,1.05,41-10c4.93-4.98,7.57-10.35,9-14"/>
</svg>
