<svg id="vivus-rocket" xmlns="http://www.w3.org/2000/svg" viewBox="0 0 64 64" aria-labelledby="title" aria-describedby="desc" role="img" xmlns:xlink="http://www.w3.org/1999/xlink" style="" class="">
  <title>Spacecraft</title>
  <desc>A line styled icon from Orion Icon Library.</desc>
  <path data-name="layer1" fill="none" stroke="#000355" stroke-linecap="round" stroke-linejoin="round" stroke-width="2" d="M28,22A4,4 0,1,1 36,22A4,4 0,1,1 28,22" class="nmDyAIWW_0"></path>
  <path data-name="layer2" d="M22 26h-3.1a2.9 2.9 0 0 0-2.9 2.9v12.2a2.9 2.9 0 0 1-2.4 2.9h-2.7A2.9 2.9 0 0 0 8 46.9V58h8m26-32h3.1a2.9 2.9 0 0 1 2.9 2.9v12.2a2.9 2.9 0 0 0 2.4 2.9H53a2.9 2.9 0 0 1 3 2.9V58h-8m-20 0h8m6-6V19.8C42 8.9 32 2 32 2S22 8.9 22 19.8V52" fill="none" stroke="#000355" stroke-linecap="round" stroke-linejoin="round" stroke-width="2" class="nmDyAIWW_1"></path>
  <path data-name="layer1" d="M28 62v-4a6 6 0 1 0-12 0v4zm20 0v-4a6 6 0 1 0-12 0v4z" fill="none" stroke="#000355" stroke-linecap="round" stroke-linejoin="round" stroke-width="2" class="nmDyAIWW_2"></path>
<style data-made-with="vivus-instant">.nmDyAIWW_0{stroke-dasharray:26 28;stroke-dashoffset:27;}.start .nmDyAIWW_0{animation:nmDyAIWW_draw_0 9400ms linear 0ms infinite,nmDyAIWW_fade 9400ms linear 0ms infinite;}.nmDyAIWW_1{stroke-dasharray:216 218;stroke-dashoffset:217;}.start .nmDyAIWW_1{animation:nmDyAIWW_draw_1 9400ms linear 0ms infinite,nmDyAIWW_fade 9400ms linear 0ms infinite;}.nmDyAIWW_2{stroke-dasharray:78 80;stroke-dashoffset:79;}.start .nmDyAIWW_2{animation:nmDyAIWW_draw_2 9400ms linear 0ms infinite,nmDyAIWW_fade 9400ms linear 0ms infinite;}@keyframes nmDyAIWW_draw{100%{stroke-dashoffset:0;}}@keyframes nmDyAIWW_fade{0%{stroke-opacity:1;}95.74468085106383%{stroke-opacity:1;}100%{stroke-opacity:0;}}@keyframes nmDyAIWW_draw_0{21.27659574468085%{stroke-dashoffset: 27}63.744680851063826%{ stroke-dashoffset: 0;}100%{ stroke-dashoffset: 0;}}@keyframes nmDyAIWW_draw_1{21.319148936170212%{stroke-dashoffset: 217}63.78723404255319%{ stroke-dashoffset: 0;}100%{ stroke-dashoffset: 0;}}@keyframes nmDyAIWW_draw_2{21.361702127659573%{stroke-dashoffset: 79}63.829787234042556%{ stroke-dashoffset: 0;}100%{ stroke-dashoffset: 0;}}</style></svg>