<?xml version="1.0" encoding="utf-8"?>
<!-- Generator: Adobe Illustrator 24.2.3, SVG Export Plug-In . SVG Version: 6.00 Build 0)  -->
<svg version="1.1" id="vivus-welcome" xmlns="http://www.w3.org/2000/svg" xmlns:xlink="http://www.w3.org/1999/xlink" x="0px" y="0px"
	 viewBox="0 0 1244.61 201.2" style="enable-background:new 0 0 1244.61 201.2;" xml:space="preserve">
<g>
	<path class="st0" d="M39.61,9c-6.66,12.26-15.57,30.61-23,54c-7.58,23.86-14.96,57.14-10,59c0.91,0.34,2.99-0.09,25-35
		c6.43-10.19,19.41-31.02,36-54c2.16-2.99,13.38-18.02,15-17c5.27,2.43-35.5,100-24,104c3.51,1.17,8.68-5.11,11-8
		c11.11-13.81,71.23-100.14,76-107"/>
</g>
<g>
	<path class="st0" d="M123.61,86c1.61,1.39,10.35,8.64,22,7c12.15-1.71,22.39-12.39,23-24c0.28-5.27-1.21-14.7-7-17
		c-12.95-5.14-47.51,25.4-43,53c4.82,30.02,36.72,28.33,57-2"/>
</g>
<g>
	<path class="st0" d="M194.61,82c3.8-2.1,9.35-5.59,15-11c22.71-21.73,29.92-57.96,24-61c-9.46-4.86-59.24,71.51-52,105
		c5.33,27.59,38.12-4.64,43-10"/>
</g>
<g>
	<path class="st0" d="M268.61,86c5.47-23.38,3.57-31.08,0-33c-9.95-5.35-47.74,26.35-42,53c1.5,6.96,6.69,16.9,16,20
		c8.34,2.77,16.29-1.17,22-4c11.37-5.64,17.82-14.6,21-20"/>
</g>
<g>
	<path class="st0" d="M335.61,57c-26.49-17.17-51.81,26.3-45,54c0.93,3.74,2.65,10.62,8,13c9.94,4.42,25.93-9.61,34-22
		c8.88-13.64,14.53-35.06,6-43c-3.78-3.52-10.86-4.85-14-2c-3.25,2.95-1.5,9.66,0,13c3.39,7.55,11.13,10.38,13,11
		c12.38,4.09,24.38-3.66,28-6c13.54-8.75,18.07-21.46,19-21c1.94,0.97-31.32,69.84-31,70c0.15,0.07,6.19-14.46,17-30
		c17.73-25.47,42.6-45.47,47-42c1.82,1.44-0.68,6.27-14,38c-12.97,30.89-15.07,36.97-15,37c0.12,0.05,4.92-16.65,16-33
		c18.21-26.88,46.01-41.95,50-38c5.2,5.15-31.94,40.68-21,63c8.12,15.91,24.53,4.49,37-14"/>
</g>
<g>
	<path class="st0" d="M481.61,85c2.22,2.33,9.3,9.15,19,9c15.85-0.24,29.48-18.96,26-32c-8.92-27.44-43.62,3.38-50,30
		c-4.11,14.28-3.47,32.85,18,34c19.09,1.45,35.71-16.81,42-28"/>
</g>
<g>
	<path class="st0" d="M588.61,42c15,0,30,0,45,0"/>
</g>
<g>
	<path class="st0" d="M625.61,15c-5.96,11.04-62.45,96.55-36,111c11.33,4.93,29.66-16.24,32-19"/>
</g>
<g>
	<path class="st0" d="M672.61,58c-23.18-12.49-48.86,17.39-48,43c0.09,2.21,0.74,18.47,11,23c7.18,3.17,15.25-1.08,17-2
		c3.9-2.05,8.23-5.64,14-17c7.74-15.23,15.05-29.61,9-42c-3.88-7.94-12.65-13.84-16-12c-3.37,1.85-1.43,11.48,0,16
		c3.43,13.23,13.38,19.7,26,15"/>
</g>
<g>
	<path class="st0" d="M739.61,43c15.33-0.67,30.67-1.33,46-2"/>
</g>
<g>
	<path class="st0" d="M778.61,14c-15.42,23.78-57.46,91.05-43,106c1.19,1.23,4.9,4.32,10,5c6.8,0.91,15.32-2.54,29-19
		c21.39-25.74,37.81-62.15,32-66c-3.22-2.13-14.22,5.08-16,14c-0.14,0.71-1.39,6.95,2,10c8.32,7.5,34.74-13.12,39-8
		c1.68,2.02-1.04,6.9-5,14c-5.85,10.49-8.91,11.63-14,20c-4.35,7.15-11.15,18.44-7,28c6.55,14.86,24.55,9.32,34-8"/>
</g>
<g>
	<path class="st0" d="M902.61,78c2.51-51.75-29.91-18.41-44,1c-6.92,9.17-15.77,21.25-13,35c0.55,2.76,1.99,9.87,7,12
		c10.12,4.29,26.91-15.12,32-21c20.75-23.99,30.08-51.47,29-52c-1.02-0.5-12.38,22.6-15,28c-14.12,29.76-16.08,40.36-5,46
		c10.35,3.8,24.7-12.2,29-17c20.93-23.35,25.82-45.24,25.82-45.24c1.2-5.37-0.17-5.92-3.04-1.23c0,0-29.09,47.54-16.78,59.47
		c2.39,2.31,6.43,2.92,7,3c27.46,2.86,59.8-76.18,56-76c-2.12-0.94-15.6,24.2-24,46c-6.45,16.74-6.75,19.08-6.75,19.08
		c-0.69,5.46-0.21,5.54,1.06,0.19c0,0,4.54-19.14,27.69-42.27c14.38-14.37,32.65-23.45,36-20c2.17,2.23-2.72,8.9-16,38
		c-7.54,16.52-11.38,26.24-7,32c2.26,2.97,5.84,3.75,7,4c9.38,2.04,18.34-6.49,25-13c3.82-3.73,13.43-13.76,24-36
		c1.61-3.4,11.5-24.2,10-25c-2.31-1.23-29.75,45.88-24,66c4.08,14.9,21.56,2.07,27-2c27.04-20.27,39.69-63.79,37-65
		c-2.22-1-17.04,25.89-26,51c-4.53,12.7-6.78,22.72-6,23c1.13,0.4,6.27-20.47,22-42c12.04-16.47,31.8-35.43,40-31
		c1.83,0.99,2.55,2.85,3,4c3.38,8.69-7.11,16.3-16,35c-4.29,9.03-10.31,21.68-5,29c3.2,4.41,9.1,4.92,10,5c10.03,0.87,21-8.7,27-24"
		/>
</g>
<g>
	<path class="st0" d="M1216.61,79c5.73-44.94-21.92-27.14-41-4c-12.89,15.68-13.88,28.69-14,33c-0.13,4.69-0.33,12.12,4,15
		c7.88,5.25,25.04-8.41,27-10c26.53-21.49,34.72-60.32,35-61c-13.06,32.56-60.31,149.67-75,144c-6.21-1.58-9.25-19.49-4-32
		c5.18-12.33,18.24-19.01,28-24c5.6-2.86,4.7-1.67,17-7c24.11-10.65,32.73-13.62,46-35"/>
</g>
<g>
	<path class="st1" d="M960.61,27c0.33,2.33,0.67,4.67,1,7"/></g>
<g>
	<path class="st1" d="M1075.11,25.5c0.5,1.83,1,3.67,1.5,5.5"/>
</g>
</svg>
